<?xml version="1.0" standalone="no"?>
<!DOCTYPE svg PUBLIC "-//W3C//DTD SVG 20010904//EN"
 "http://www.w3.org/TR/2001/REC-SVG-20010904/DTD/svg10.dtd">
<svg version="1.0" xmlns="http://www.w3.org/2000/svg"
 width="187.000000pt" height="269.000000pt" viewBox="0 0 187.000000 269.000000"
 preserveAspectRatio="xMidYMid meet">

<g transform="translate(0.000000,269.000000) scale(0.100000,-0.100000)"
fill="#000000" stroke="none">
<path d="M1173 2675 c-15 -6 -27 -16 -25 -21 4 -14 -161 -30 -166 -16 -2 7
-13 12 -23 12 -11 0 -18 4 -14 9 3 5 0 13 -6 17 -8 4 -9 3 -5 -4 4 -8 0 -12
-11 -12 -38 0 -44 -15 -49 -106 -2 -49 -6 -101 -10 -116 -5 -24 -3 -27 12 -21
14 5 16 2 10 -23 -4 -19 -3 -24 2 -15 7 10 12 7 19 -15 l9 -27 13 31 c13 31
14 31 42 16 16 -8 29 -17 29 -20 0 -2 -8 0 -18 5 -11 6 -24 6 -33 0 -7 -5 -12
-9 -9 -10 17 -5 60 -10 93 -10 33 -1 36 -3 25 -17 -11 -13 -10 -14 9 -4 16 9
22 9 25 0 6 -16 65 -12 94 7 23 15 24 14 24 -5 0 -12 4 -19 10 -15 5 3 6 13 3
22 -5 13 -2 15 15 11 12 -4 22 -2 22 3 0 5 16 9 35 9 19 0 46 5 60 12 29 13
34 46 8 54 -93 31 -102 38 -109 83 -4 24 -4 70 -1 102 7 60 1 72 -35 74 -9 1
-29 -4 -45 -10z m24 -21 c-3 -3 -12 -4 -19 -1 -8 3 -5 6 6 6 11 1 17 -2 13 -5z
m-22 -120 c-10 -8 -14 -14 -8 -14 6 0 16 7 23 15 20 24 30 17 30 -21 0 -24 4
-33 12 -28 7 5 8 3 3 -5 -9 -15 -21 -4 -28 24 -4 15 -5 13 -6 -7 -1 -21 -6
-28 -21 -28 -11 0 -20 5 -20 11 0 5 5 7 11 3 7 -4 10 -1 7 6 -2 8 -10 16 -17
18 -10 3 -12 -4 -9 -26 2 -17 1 -29 -4 -26 -4 3 -8 27 -8 53 0 47 1 48 27 43
25 -5 25 -6 8 -18z m-67 -6 c17 -17 15 -45 -5 -52 -11 -5 -22 -1 -30 10 -16
23 -17 41 0 47 19 8 22 8 35 -5z m-133 -66 c-3 -3 -11 0 -18 7 -9 10 -8 11 6
5 10 -3 15 -9 12 -12z m100 -92 c3 -6 -1 -7 -9 -4 -18 7 -21 14 -7 14 6 0 13
-4 16 -10z m105 -30 c-19 -13 -30 -13 -30 0 0 6 10 10 23 10 18 0 19 -2 7 -10z
m-55 -10 c3 -6 -1 -7 -9 -4 -18 7 -21 14 -7 14 6 0 13 -4 16 -10z"/>
<path d="M888 2348 c-7 -19 2 -38 18 -38 8 0 14 -7 14 -15 0 -13 -4 -14 -20
-5 -11 6 -20 16 -20 21 0 6 -9 1 -19 -12 -15 -19 -32 -25 -83 -29 -63 -5 -63
-5 -66 -37 -2 -22 3 -40 18 -55 l20 -22 16 22 c13 18 19 21 30 11 18 -14 19
-53 2 -44 -7 4 -5 0 5 -8 14 -12 15 -20 7 -41 -11 -30 -25 -33 -39 -9 -8 14
-12 15 -25 4 -14 -12 -19 -11 -34 1 -25 23 -45 27 -62 13 -29 -23 -102 -36
-192 -34 -80 1 -92 -1 -101 -17 -6 -11 -27 -35 -46 -54 -52 -51 -81 -91 -74
-103 3 -6 1 -7 -5 -3 -20 12 -44 -93 -48 -204 -3 -73 -10 -123 -25 -163 -11
-31 -17 -63 -13 -70 4 -6 4 -9 -1 -5 -10 10 -77 -93 -71 -109 3 -7 0 -12 -5
-10 -29 6 -41 -115 -23 -230 4 -26 1 -62 -7 -90 -15 -54 -14 -78 6 -109 7 -11
16 -41 20 -66 10 -67 37 -107 68 -101 19 4 28 -1 37 -16 6 -12 8 -27 4 -34 -4
-6 -4 -9 1 -5 4 4 16 3 26 -3 24 -12 25 -56 2 -62 -17 -4 -17 -5 0 -6 10 0 20
6 23 14 9 21 24 19 24 -4 0 -24 16 -36 26 -20 8 13 33 -26 34 -53 0 -9 7 -24
16 -33 15 -15 14 -23 -24 -105 -50 -111 -95 -171 -211 -284 -51 -49 -91 -97
-91 -107 0 -17 9 -19 109 -19 124 0 118 -4 177 109 22 44 29 50 34 35 4 -10
-1 -36 -11 -59 -10 -22 -19 -50 -19 -62 l0 -23 303 0 303 0 44 45 c24 24 46
43 48 40 6 -5 62 64 62 77 0 5 5 6 11 2 6 -4 9 -19 5 -38 -4 -21 -3 -26 3 -16
7 10 14 -2 27 -48 l17 -62 300 0 299 0 -6 28 -6 27 17 -27 c16 -26 22 -28 85
-28 41 0 68 4 68 10 0 6 -45 68 -100 138 -55 70 -106 145 -113 167 -35 100
-39 118 -32 171 4 36 15 64 32 85 26 30 91 69 116 69 32 0 41 28 27 86 -7 30
-17 57 -22 60 -4 3 -8 16 -8 29 0 26 26 58 41 50 5 -4 9 3 9 14 0 11 4 23 10
26 16 10 12 76 -5 95 -13 14 -14 22 -4 43 10 21 9 30 -2 43 -8 10 -14 47 -15
99 -3 94 -13 141 -55 242 -16 40 -30 85 -30 100 -1 66 0 123 3 203 3 80 1 89
-33 161 -40 83 -49 93 -94 95 -38 2 -49 -4 -35 -21 14 -16 9 -61 -5 -57 -5 2
-9 14 -7 28 3 23 2 24 -17 14 -25 -13 -25 -11 -6 26 19 37 19 58 0 74 -11 9
-15 9 -15 1 0 -6 -10 -16 -22 -21 -13 -5 -17 -9 -10 -9 6 -1 12 -10 12 -22 0
-11 4 -17 10 -14 6 4 8 15 5 26 -5 14 -3 17 9 13 20 -8 20 -10 -4 -59 -24 -49
-24 -54 -3 -77 13 -15 14 -18 2 -18 -24 0 -39 22 -39 54 0 38 -6 31 -14 -19
-4 -26 -3 -35 3 -26 7 11 10 9 16 -8 3 -11 4 -25 0 -31 -4 -6 1 -7 11 -3 9 3
15 2 13 -3 -3 -5 -11 -21 -18 -36 -12 -23 -12 -32 2 -60 17 -35 7 -49 -18 -28
-13 10 -15 8 -15 -15 0 -18 4 -25 13 -21 6 3 20 9 30 12 10 4 16 12 14 18 -2
6 -7 22 -11 36 l-7 25 20 -24 c27 -30 27 -82 0 -112 l-20 -24 4 28 c2 15 0 27
-4 27 -5 0 -9 -5 -9 -11 0 -5 -5 -7 -12 -3 -8 5 -9 2 -4 -12 20 -48 28 -91 22
-123 -3 -23 -2 -31 3 -22 7 11 10 9 14 -10 l4 -24 1 25 c1 14 -3 43 -8 65 -10
44 -4 60 12 31 15 -27 28 -2 28 59 0 36 3 46 10 35 15 -23 12 -97 -4 -113 -8
-7 -14 -31 -14 -51 0 -23 -7 -45 -17 -55 -16 -15 -18 -15 -28 1 -10 14 -15 10
-41 -35 -72 -127 -106 -278 -69 -308 15 -13 15 -12 5 8 -16 30 -15 35 6 24 9
-5 34 -16 56 -25 l39 -17 -5 -95 c-4 -64 -10 -100 -20 -112 -29 -32 -51 -87
-65 -157 -17 -92 -17 -136 3 -163 14 -20 14 -22 -4 -22 -28 0 -32 18 -32 141
0 82 3 108 12 103 8 -5 9 -2 5 9 -3 10 -3 17 1 17 4 0 9 11 10 23 1 13 11 44
22 68 24 53 25 90 5 129 -13 25 -13 30 -1 30 17 0 25 -30 27 -100 1 -54 1 -54
11 -20 22 79 -10 140 -74 140 -23 0 -38 5 -39 13 0 6 -1 64 -2 127 -1 101 2
126 28 208 21 68 31 89 37 78 5 -9 6 -21 3 -26 -3 -6 -1 -10 5 -10 6 0 9 18 8
44 -2 24 -6 42 -9 40 -4 -2 -17 20 -29 48 -19 43 -22 64 -17 118 3 36 13 83
22 105 10 27 14 31 10 12 -4 -20 -2 -27 5 -22 25 16 -18 126 -64 164 -8 7 -14
17 -11 21 3 5 0 12 -6 16 -7 4 -9 3 -6 -3 4 -6 -1 -14 -10 -17 -10 -4 -14 -4
-10 0 4 4 2 13 -3 19 -16 19 13 26 57 13 21 -7 41 -11 45 -10 4 1 15 -9 24
-23 9 -14 24 -25 34 -25 10 0 21 -6 24 -12 3 -7 3 -2 0 11 -4 14 -15 34 -25
45 -22 23 -24 36 -6 36 8 0 9 3 1 8 -6 4 -13 26 -17 50 -4 34 -2 42 11 43 11
0 12 2 5 6 -7 2 -13 15 -13 28 0 52 -4 55 -111 69 -39 5 -41 -1 -23 -63 6 -18
4 -22 -6 -16 -8 5 -11 4 -6 -3 4 -6 13 -9 21 -5 18 6 18 8 3 33 -7 10 -10 21
-7 24 8 8 83 -15 91 -28 12 -17 9 -26 -8 -26 -9 0 -12 5 -8 12 5 7 3 8 -6 3
-10 -6 -9 -11 5 -21 12 -9 16 -21 13 -39 -3 -14 -1 -25 3 -25 5 0 9 -5 9 -11
0 -6 -9 -8 -22 -4 -13 3 -18 3 -12 -2 6 -4 13 -18 17 -31 5 -22 3 -23 -26 -16
-18 4 -42 7 -55 7 -13 -1 -21 1 -18 4 2 3 -8 17 -22 31 -15 15 -26 34 -24 43
2 9 -4 23 -12 31 -9 10 -11 19 -5 25 5 5 10 21 11 36 3 30 24 37 31 10 3 -11
5 -7 6 10 1 22 -3 27 -24 27 -14 0 -25 5 -25 10 0 6 -4 10 -9 10 -6 0 -13 -20
-16 -43 -5 -34 -19 -57 -60 -101 -62 -68 -78 -68 -138 -3 -45 49 -67 94 -67
136 0 20 -7 34 -20 41 -11 6 -17 16 -14 25 4 8 4 15 1 15 -3 0 -7 -6 -9 -12z
m-38 -106 c0 -11 -9 -13 -37 -9 -54 9 -59 23 -8 23 32 0 45 -4 45 -14z m75
-22 c4 -17 11 -30 16 -30 6 0 9 -8 7 -17 -2 -13 3 -17 16 -15 11 2 16 -1 13
-10 -2 -7 -10 -12 -16 -10 -22 4 -10 -12 39 -58 48 -45 50 -48 39 -78 -13 -38
-24 -40 -56 -10 -19 17 -23 19 -17 5 5 -14 0 -17 -23 -17 -66 0 -75 32 -53
187 13 93 23 108 35 53z m257 -52 c-7 -7 -12 -8 -12 -2 0 14 12 26 19 19 2 -3
-1 -11 -7 -17z m-6 -48 c-3 -17 -2 -29 3 -26 8 5 33 -11 84 -54 19 -16 23 -45
7 -55 -6 -4 -8 -10 -5 -15 3 -5 -8 -16 -24 -25 -43 -22 -53 -18 -11 5 19 11
31 19 25 19 -5 0 -21 -6 -35 -14 -35 -20 -64 -19 -56 1 5 12 2 15 -11 9 -43
-18 -56 -18 -69 0 -19 26 -18 34 9 45 17 7 18 9 5 9 -26 1 -22 24 10 54 23 22
31 25 42 14 12 -10 12 -9 2 4 -9 12 -8 20 4 37 21 30 28 27 20 -8z m-616 -86
c0 -8 -19 -13 -24 -6 -3 5 1 9 9 9 8 0 15 -2 15 -3z m760 -50 c0 -8 -19 -13
-24 -6 -3 5 1 9 9 9 8 0 15 -2 15 -3z m-309 -26 c22 -6 39 -15 39 -20 0 -5 -5
-6 -12 -2 -7 4 -8 3 -4 -5 5 -8 12 -9 19 -3 7 6 31 12 55 14 39 3 41 2 25 -10
-16 -13 -15 -14 14 -8 40 7 72 -2 51 -15 -19 -13 -36 -11 -18 2 12 9 12 10 -3
5 -10 -3 -23 -6 -28 -6 -5 0 -9 -4 -9 -10 0 -5 7 -7 15 -4 8 4 15 1 15 -5 0
-16 30 -1 77 38 61 50 84 50 117 1 l26 -40 -61 -45 c-73 -54 -212 -125 -245
-125 -22 0 -64 34 -64 52 0 26 33 68 53 68 19 1 20 2 7 13 -17 14 -27 53 -11
42 6 -3 11 -2 11 3 0 16 -28 22 -33 7 -3 -7 -3 -16 1 -19 13 -14 10 -37 -4
-32 -8 3 -13 2 -10 -3 9 -15 -21 -33 -58 -35 -31 -1 -33 1 -24 18 8 15 8 21
-1 24 -6 2 -11 11 -10 20 0 12 2 13 6 3 5 -11 7 -11 15 0 8 11 9 10 4 -3 -3
-12 0 -18 10 -18 10 0 14 6 10 15 -3 9 0 15 10 15 8 0 12 5 9 10 -3 6 -1 10 4
10 6 0 11 -5 11 -12 0 -9 3 -8 13 1 10 11 9 14 -1 18 -7 3 -18 11 -25 17 -6 7
-22 11 -36 10 -19 -3 -21 -2 -6 3 l20 6 -20 8 c-31 12 3 10 46 -3z m-301 -23
c-7 -9 -15 -13 -17 -11 -6 6 20 36 26 30 2 -2 -2 -10 -9 -19z m-315 5 c3 -5 1
-10 -4 -10 -6 0 -11 5 -11 10 0 6 2 10 4 10 3 0 8 -4 11 -10z m493 -29 c-15
-5 -21 7 -13 26 7 17 8 17 15 -2 4 -11 3 -22 -2 -24z m82 9 c-12 -8 -12 -10
-1 -10 8 0 12 -3 8 -6 -9 -9 -28 6 -22 17 4 5 12 9 18 9 7 0 6 -4 -3 -10z
m568 -12 c14 -14 16 -57 3 -77 -6 -9 -5 -24 0 -39 11 -28 3 -65 -12 -56 -5 3
-8 18 -7 32 2 21 -1 26 -15 24 -16 -3 -16 0 3 35 24 46 25 51 3 75 -13 15 -14
18 -2 18 8 0 20 -5 27 -12z m-191 -152 c0 -1 3 -31 4 -68 5 -91 -7 -103 -104
-103 -52 0 -71 3 -69 13 1 6 -2 12 -8 12 -5 0 -14 16 -19 36 -9 32 -7 39 12
55 12 10 33 22 47 25 14 4 36 15 50 25 17 12 35 16 55 12 17 -3 31 -6 32 -7z
m-470 -116 c-1 -19 -17 -27 -30 -14 -9 10 4 34 18 34 8 0 13 -9 12 -20z m320
-290 c-3 -11 -1 -20 5 -20 10 0 5 -51 -8 -84 -3 -8 5 -17 18 -21 19 -6 20 -8
5 -12 -9 -2 -15 -9 -12 -14 4 -5 0 -9 -8 -9 -8 0 -20 -6 -26 -14 -6 -7 -21
-12 -34 -11 -12 1 -14 0 -4 -2 9 -2 17 -11 17 -19 0 -18 8 -18 26 1 22 22 60
18 78 -7 17 -24 22 -17 7 11 -8 14 -5 17 14 17 19 0 28 -10 45 -48 11 -26 27
-48 35 -48 17 0 55 -35 55 -50 0 -11 -39 -13 -64 -4 -9 3 -14 9 -12 13 2 3
-17 6 -42 6 -58 -1 -72 3 -72 20 0 21 -57 29 -75 11 -9 -8 -31 -18 -50 -22
-20 -3 -38 -10 -41 -15 -3 -5 1 -6 9 -3 8 3 17 -2 21 -12 4 -12 2 -15 -9 -10
-10 4 -15 -1 -15 -14 0 -15 7 -20 28 -20 36 0 52 16 53 55 1 16 3 22 6 13 2
-9 10 -15 17 -12 8 3 16 -2 20 -11 3 -9 2 -13 -4 -10 -6 3 -20 -5 -32 -18 -26
-29 -93 -43 -101 -23 -3 8 -9 50 -12 95 -7 75 -6 81 11 81 17 1 17 2 3 13 -20
15 -13 35 23 65 25 22 27 27 14 34 -23 13 -20 34 12 65 55 54 109 72 99 33z
m314 -138 l-9 -47 -1 51 c-1 46 -4 53 -25 58 -28 7 -38 28 -30 61 6 23 8 21
40 -25 32 -47 34 -53 25 -98z m-625 87 c10 -17 -13 -36 -27 -22 -12 12 -4 33
11 33 5 0 12 -5 16 -11z m-280 -121 c20 -78 20 -78 -33 -78 -62 0 -97 -18
-101 -52 -2 -14 -11 -29 -20 -32 -9 -3 -23 -9 -29 -12 -18 -8 -17 45 2 89 22
54 19 74 -15 92 -38 20 -33 29 24 44 27 7 53 22 68 39 l23 28 33 -32 c22 -21
38 -51 48 -86z m304 -18 c-8 -5 -10 -10 -5 -10 6 0 3 -5 -5 -10 -13 -9 -13
-10 0 -10 11 -1 11 -3 -3 -11 -10 -6 -21 -8 -24 -5 -8 8 26 56 40 56 8 0 7 -4
-3 -10z m414 -6 c3 -8 2 -12 -4 -9 -6 3 -10 10 -10 16 0 14 7 11 14 -7z m-304
-66 c0 -24 -48 -60 -82 -64 -27 -2 -43 22 -28 41 7 8 16 12 21 10 4 -3 12 3
18 12 6 10 11 15 11 11 0 -4 10 -3 23 2 33 13 37 12 37 -12z m-95 2 c-3 -5
-11 -10 -17 -10 -6 0 -17 -8 -25 -17 -13 -17 -13 -17 -11 2 2 11 8 23 13 27
15 11 47 9 40 -2z m-58 -175 c-5 -99 -39 -233 -63 -242 -20 -7 -71 15 -79 35
-11 26 -35 155 -30 160 2 3 -2 17 -10 33 -14 27 -50 47 -62 35 -4 -3 1 -6 10
-6 17 0 47 -26 47 -41 0 -6 -4 -8 -9 -5 -5 4 -7 -2 -5 -11 3 -12 -9 -29 -33
-49 l-38 -31 -1 48 c0 26 -8 58 -17 73 -14 21 -22 24 -47 19 -18 -3 -30 -1
-30 5 0 6 -2 16 -5 24 -4 10 13 12 82 10 79 -3 91 -6 116 -30 16 -15 27 -36
27 -52 0 -55 29 -125 67 -160 20 -19 31 -27 24 -17 -11 14 -11 20 0 34 12 14
12 15 1 9 -11 -7 -12 -4 -4 10 18 34 42 175 43 253 1 74 1 75 11 31 5 -25 7
-85 5 -135z m325 133 c-9 -9 -15 -9 -24 0 -9 9 -7 12 12 12 19 0 21 -3 12 -12z
m-282 -23 c6 -8 15 -14 18 -13 27 3 31 -3 20 -27 -8 -18 -14 -22 -19 -13 -4 7
-2 19 4 27 10 12 9 13 -10 3 -32 -17 -39 -15 -39 13 0 28 8 32 26 10z m220 11
c0 -15 -14 -35 -21 -30 -15 9 -10 34 6 34 8 0 15 -2 15 -4z m-122 -48 c-11
-31 -11 -31 -20 -9 -9 26 -3 41 17 41 11 0 12 -6 3 -32z m232 17 c0 -8 -8 -15
-17 -15 -15 0 -14 -2 3 -15 10 -8 14 -15 9 -15 -17 0 -35 22 -35 42 0 11 7 18
20 18 11 0 20 -7 20 -15z m46 -11 c10 -8 12 -12 4 -8 -13 7 -13 5 -2 -9 16
-19 8 -39 -12 -31 -14 5 -28 64 -16 64 3 0 15 -7 26 -16z m522 4 c13 -17 -3
-58 -22 -58 -22 0 -36 31 -25 52 11 21 32 23 47 6z m-908 -29 c0 -5 5 -7 10
-4 6 3 10 1 10 -4 0 -16 -16 -13 -30 4 -9 10 -9 15 -1 15 6 0 11 -5 11 -11z
m433 -13 c-1 -12 4 -15 15 -11 9 3 13 3 10 -1 -4 -3 0 -13 8 -21 8 -9 12 -18
9 -22 -4 -3 -12 1 -18 9 -7 8 -18 15 -24 16 -28 2 -30 5 -25 29 5 28 28 28 25
1z m60 3 c-6 -6 -17 -8 -24 -3 -9 5 -8 9 7 14 23 9 31 3 17 -11z m-567 -14 c0
-14 -4 -25 -8 -25 -9 0 -16 23 -10 38 8 21 20 13 18 -13z m790 -79 c19 -30 20
-34 5 -45 -13 -9 -11 -9 7 -1 19 9 29 6 67 -21 45 -32 88 -100 79 -124 -3 -7
-27 -22 -53 -33 -49 -22 -85 -50 -113 -91 -24 -34 -45 -22 -40 23 2 20 8 36
13 36 5 0 5 -8 2 -17 -6 -16 -5 -16 10 -4 10 8 15 16 12 19 -6 6 69 78 98 94
17 8 18 7 12 -14 -5 -15 -4 -20 3 -13 5 6 12 24 15 41 6 29 4 31 -21 28 -31
-4 -64 4 -58 14 2 4 -2 16 -10 27 -16 22 -18 8 -4 -30 8 -21 6 -30 -10 -47
-19 -21 -20 -21 -39 -4 -11 10 -23 35 -26 57 -4 24 -14 43 -26 50 -18 9 -18
12 13 49 18 22 35 40 38 39 3 0 14 -15 26 -33z m-1046 -66 c0 -17 -12 -34 -34
-52 -33 -26 -34 -29 -23 -63 8 -29 8 -38 -2 -45 -17 -10 -51 -1 -52 14 -1 6
-2 16 -4 21 -1 6 -3 16 -3 23 -1 6 -6 12 -12 12 -6 0 -9 -6 -8 -12 2 -7 -7
-14 -19 -16 -13 -2 -23 1 -23 7 0 14 41 41 52 35 5 -3 7 -1 6 4 -2 5 10 24 25
42 20 22 35 30 48 27 16 -4 18 -3 9 8 -7 8 -9 19 -5 26 6 8 10 7 16 -2 7 -11
9 -9 9 6 0 31 20 -3 20 -35z m1095 -99 c3 -6 -4 -15 -15 -21 -22 -12 -23 -10
-14 14 7 18 20 21 29 7z m-1280 -31 c4 -6 15 -8 24 -5 24 7 52 -25 44 -53 -5
-19 -8 -20 -22 -10 -9 7 -5 -1 9 -17 14 -17 21 -27 16 -23 -5 4 -28 -4 -52
-18 -24 -14 -49 -23 -56 -21 -8 4 -7 6 4 6 15 1 15 4 2 29 -19 37 -19 86 1 78
42 -17 47 -16 16 4 -27 17 -31 24 -20 31 18 11 26 11 34 -1z m1230 0 c7 -11
-11 -40 -25 -40 -4 0 -5 11 -2 25 5 26 16 32 27 15z m-1081 -87 c7 -54 3 -62
-22 -40 -10 10 -24 17 -30 17 -7 0 -12 7 -12 16 0 8 -4 13 -9 10 -5 -4 -7 3
-4 13 3 12 16 22 32 24 14 2 29 5 32 6 4 0 9 -20 13 -46z m-21 -72 c-5 -3 -9
-22 -9 -41 0 -26 -14 -55 -52 -112 -28 -42 -64 -107 -79 -144 l-28 -68 -3 38
c-2 24 7 70 25 119 26 75 28 79 35 52 6 -27 7 -27 5 7 -2 20 1 34 5 32 4 -3 8
5 8 18 0 13 11 41 25 63 21 34 24 36 22 15 -1 -14 -5 -27 -8 -30 -4 -3 -1 -11
7 -18 12 -11 14 -4 14 43 0 54 1 55 21 44 12 -6 17 -14 12 -18z"/>
<path d="M1180 2060 c8 -5 20 -10 25 -10 6 0 3 5 -5 10 -8 5 -19 10 -25 10 -5
0 -3 -5 5 -10z"/>
<path d="M1170 2041 c0 -6 4 -13 10 -16 6 -3 7 1 4 9 -7 18 -14 21 -14 7z"/>
<path d="M1228 1983 c7 -3 16 -2 19 1 4 3 -2 6 -13 5 -11 0 -14 -3 -6 -6z"/>
<path d="M1078 1923 c6 -2 18 -2 25 0 6 3 1 5 -13 5 -14 0 -19 -2 -12 -5z"/>
<path d="M1130 1865 c-14 -8 -20 -14 -14 -15 5 0 19 7 30 15 24 18 16 19 -16
0z"/>
<path d="M965 1840 c-8 -13 30 -18 42 -5 9 10 6 13 -13 13 -13 0 -26 -4 -29
-8z"/>
<path d="M1099 1818 c-11 -8 -11 -9 3 -4 11 3 21 -2 28 -13 8 -15 5 -20 -13
-25 -32 -8 -35 -8 -40 12 -4 16 -5 16 -6 0 0 -10 8 -22 19 -28 26 -14 60 3 60
30 0 25 -31 42 -51 28z"/>
<path d="M1078 1153 c7 -3 16 -2 19 1 4 3 -2 6 -13 5 -11 0 -14 -3 -6 -6z"/>
<path d="M1070 1131 c-14 -4 -25 -12 -24 -19 1 -7 2 -23 3 -37 1 -17 7 -25 19
-24 10 0 12 3 5 6 -7 2 -13 18 -13 35 0 22 4 29 15 25 8 -4 17 -2 20 3 4 6 11
10 16 10 6 0 7 -5 3 -12 -4 -7 -3 -8 4 -4 8 5 12 0 12 -13 0 -24 -10 -27 -29
-8 -11 10 -11 8 0 -10 17 -28 41 -11 37 26 -3 28 -24 35 -68 22z"/>
<path d="M1190 1132 c0 -5 7 -9 15 -9 8 0 12 4 9 9 -3 4 -9 8 -15 8 -5 0 -9
-4 -9 -8z"/>
<path d="M1238 1119 c14 -19 60 -31 68 -18 3 5 -8 9 -23 9 -16 0 -35 6 -43 13
-12 10 -12 9 -2 -4z"/>
<path d="M1151 1104 c0 -11 3 -14 6 -6 3 7 2 16 -1 19 -3 4 -6 -2 -5 -13z"/>
<path d="M1310 1083 c0 -4 5 -15 10 -23 8 -13 10 -13 10 2 0 9 -4 20 -10 23
-5 3 -10 3 -10 -2z"/>
<path d="M620 891 c0 -5 -3 -17 -6 -25 -4 -12 -2 -15 9 -10 20 7 30 44 11 44
-8 0 -14 -4 -14 -9z"/>
<path d="M711 834 c0 -11 3 -14 6 -6 3 7 2 16 -1 19 -3 4 -6 -2 -5 -13z"/>
<path d="M1773 984 c-7 -20 12 -41 22 -23 6 8 4 10 -5 4 -9 -5 -10 -2 -5 14 7
24 -3 29 -12 5z"/>
<path d="M970 2341 c0 -5 10 -13 23 -17 12 -4 25 -12 29 -18 4 -6 11 -7 15 -2
4 5 2 11 -6 14 -11 4 -11 6 0 14 11 7 10 8 -4 4 -10 -3 -27 -1 -38 4 -12 7
-19 7 -19 1z"/>
<path d="M1309 2293 c-13 -17 -13 -17 6 -3 11 8 22 16 24 17 2 2 0 3 -6 3 -6
0 -17 -8 -24 -17z"/>
<path d="M1054 2259 c-3 -6 1 -18 10 -27 15 -15 17 -15 33 1 21 21 10 35 -14
16 -15 -12 -16 -12 -10 4 7 19 -8 24 -19 6z"/>
<path d="M1027 2198 c2 -5 24 -8 48 -8 24 0 46 3 48 8 3 4 -19 7 -48 7 -29 0
-51 -3 -48 -7z"/>
<path d="M1052 2160 c10 -6 25 -7 40 -1 20 9 18 10 -17 10 -31 0 -36 -2 -23
-9z"/>
<path d="M1320 2159 c0 -5 5 -7 10 -4 6 3 10 8 10 11 0 2 -4 4 -10 4 -5 0 -10
-5 -10 -11z"/>
<path d="M1457 2143 c-11 -22 -5 -62 10 -67 12 -5 13 -4 5 7 -6 7 -9 25 -6 40
4 26 0 36 -9 20z"/>
<path d="M1060 2130 c0 -5 5 -10 11 -10 5 0 7 5 4 10 -3 6 -8 10 -11 10 -2 0
-4 -4 -4 -10z"/>
<path d="M723 2105 c0 -8 4 -12 9 -9 4 3 8 9 8 15 0 5 -4 9 -8 9 -5 0 -9 -7
-9 -15z"/>
<path d="M1500 2110 c0 -5 5 -10 11 -10 5 0 7 5 4 10 -3 6 -8 10 -11 10 -2 0
-4 -4 -4 -10z"/>
<path d="M1520 2080 c0 -5 5 -10 11 -10 5 0 7 5 4 10 -3 6 -8 10 -11 10 -2 0
-4 -4 -4 -10z"/>
<path d="M1451 1814 c0 -11 3 -14 6 -6 3 7 2 16 -1 19 -3 4 -6 -2 -5 -13z"/>
<path d="M1392 1785 c0 -16 2 -22 5 -12 2 9 2 23 0 30 -3 6 -5 -1 -5 -18z"/>
<path d="M1412 1750 c0 -14 2 -19 5 -12 2 6 2 18 0 25 -3 6 -5 1 -5 -13z"/>
<path d="M1390 1691 c0 -5 5 -13 10 -16 6 -3 10 -2 10 4 0 5 -4 13 -10 16 -5
3 -10 2 -10 -4z"/>
<path d="M1786 823 c-6 -14 -5 -15 5 -6 7 7 10 15 7 18 -3 3 -9 -2 -12 -12z"/>
<path d="M969 53 c-13 -16 -12 -17 4 -4 9 7 17 15 17 17 0 8 -8 3 -21 -13z"/>
<path d="M946 13 c-6 -14 -5 -15 5 -6 7 7 10 15 7 18 -3 3 -9 -2 -12 -12z"/>
</g>
</svg>
